<mxfile host="Electron" modified="2024-04-08T03:50:56.573Z" agent="Mozilla/5.0 (Windows NT 10.0; Win64; x64) AppleWebKit/537.36 (KHTML, like Gecko) draw.io/24.1.0 Chrome/120.0.6099.109 Electron/28.1.0 Safari/537.36" etag="KKkSvpI51J8Mt37xqqNn" version="24.1.0" type="device">
  <diagram name="Функциональная схема" id="vQrP_FNyO64nTWhNYcAW">
    <mxGraphModel dx="2333" dy="1593" grid="1" gridSize="10" guides="1" tooltips="1" connect="1" arrows="1" fold="1" page="1" pageScale="1" pageWidth="827" pageHeight="1169" math="0" shadow="0">
      <root>
        <mxCell id="0" />
        <mxCell id="1" parent="0" />
        <mxCell id="8mkqQgr7DWQdwDWj-oUN-1" value="" style="rounded=0;whiteSpace=wrap;html=1;movable=0;resizable=0;rotatable=0;deletable=0;editable=0;locked=1;connectable=0;strokeWidth=2;fillColor=default;strokeColor=#6c8ebf;" vertex="1" parent="1">
          <mxGeometry x="10" y="40" width="800" height="2180" as="geometry" />
        </mxCell>
        <mxCell id="8mkqQgr7DWQdwDWj-oUN-2" value="&lt;font face=&quot;Times New Roman&quot;&gt;Функциональная схема покупки билета пассажиром&lt;/font&gt;" style="rounded=0;whiteSpace=wrap;html=1;fillColor=#dae8fc;strokeColor=#6c8ebf;fontStyle=1;strokeWidth=2;movable=0;resizable=0;rotatable=0;deletable=0;editable=0;locked=1;connectable=0;fontSize=20;" vertex="1" parent="1">
          <mxGeometry x="10" y="10" width="800" height="30" as="geometry" />
        </mxCell>
        <mxCell id="8mkqQgr7DWQdwDWj-oUN-6" style="rounded=0;orthogonalLoop=1;jettySize=auto;html=1;exitX=0.5;exitY=1;exitDx=0;exitDy=0;entryX=0.5;entryY=0;entryDx=0;entryDy=0;fillColor=#bac8d3;strokeColor=#23445d;strokeWidth=2;" edge="1" parent="1" source="8mkqQgr7DWQdwDWj-oUN-3" target="8mkqQgr7DWQdwDWj-oUN-4">
          <mxGeometry relative="1" as="geometry" />
        </mxCell>
        <mxCell id="8mkqQgr7DWQdwDWj-oUN-3" value="Начало" style="rounded=1;whiteSpace=wrap;html=1;fontFamily=Times New Roman;fontSize=16;fontStyle=1;arcSize=50;fillColor=#dae8fc;strokeColor=#6c8ebf;strokeWidth=2;" vertex="1" parent="1">
          <mxGeometry x="320" y="70" width="180" height="30" as="geometry" />
        </mxCell>
        <mxCell id="8mkqQgr7DWQdwDWj-oUN-9" style="rounded=0;orthogonalLoop=1;jettySize=auto;html=1;exitX=0.5;exitY=1;exitDx=0;exitDy=0;entryX=0.5;entryY=0;entryDx=0;entryDy=0;fillColor=#bac8d3;strokeColor=#23445d;strokeWidth=2;" edge="1" parent="1" source="8mkqQgr7DWQdwDWj-oUN-4" target="8mkqQgr7DWQdwDWj-oUN-8">
          <mxGeometry relative="1" as="geometry" />
        </mxCell>
        <mxCell id="8mkqQgr7DWQdwDWj-oUN-4" value="Войти в свой пассажирский профиль" style="rounded=0;whiteSpace=wrap;html=1;fontFamily=Times New Roman;fontSize=16;fontStyle=1;fillColor=#dae8fc;strokeColor=#6c8ebf;strokeWidth=2;" vertex="1" parent="1">
          <mxGeometry x="150" y="130" width="520" height="30" as="geometry" />
        </mxCell>
        <mxCell id="8mkqQgr7DWQdwDWj-oUN-8" value="Нажать в боковом меню &quot;Рейсы&quot;&amp;nbsp;&lt;span style=&quot;font-family: &amp;quot;Times New Roman&amp;quot;, serif; font-size: 16px; background-color: initial;&quot;&gt;–&lt;/span&gt;&amp;nbsp;&quot;Просмотр рейсов&quot;" style="rounded=0;whiteSpace=wrap;html=1;fontFamily=Times New Roman;fontSize=16;fontStyle=1;fillColor=#dae8fc;strokeColor=#6c8ebf;strokeWidth=2;" vertex="1" parent="1">
          <mxGeometry x="150" y="190" width="520" height="30" as="geometry" />
        </mxCell>
        <mxCell id="8mkqQgr7DWQdwDWj-oUN-24" style="rounded=0;orthogonalLoop=1;jettySize=auto;html=1;exitX=0.5;exitY=1;exitDx=0;exitDy=0;entryX=0.5;entryY=0;entryDx=0;entryDy=0;fillColor=#bac8d3;strokeColor=#23445d;strokeWidth=2;" edge="1" parent="1" source="8mkqQgr7DWQdwDWj-oUN-14" target="8mkqQgr7DWQdwDWj-oUN-23">
          <mxGeometry relative="1" as="geometry" />
        </mxCell>
        <mxCell id="8mkqQgr7DWQdwDWj-oUN-14" value="Ввод в поле &quot;Найти:&quot; нужных параметров для поиска рейсов" style="shape=parallelogram;perimeter=parallelogramPerimeter;whiteSpace=wrap;html=1;fixedSize=1;fillColor=#dae8fc;strokeColor=#6c8ebf;strokeWidth=2;fontFamily=Times New Roman;fontSize=16;fontStyle=1" vertex="1" parent="1">
          <mxGeometry x="150" y="330" width="520" height="30" as="geometry" />
        </mxCell>
        <mxCell id="8mkqQgr7DWQdwDWj-oUN-21" style="rounded=0;orthogonalLoop=1;jettySize=auto;html=1;exitX=0.5;exitY=1;exitDx=0;exitDy=0;fillColor=#bac8d3;strokeColor=#23445d;strokeWidth=2;" edge="1" parent="1" source="8mkqQgr7DWQdwDWj-oUN-8">
          <mxGeometry relative="1" as="geometry">
            <mxPoint x="420" y="170" as="sourcePoint" />
            <mxPoint x="410" y="250" as="targetPoint" />
          </mxGeometry>
        </mxCell>
        <mxCell id="8mkqQgr7DWQdwDWj-oUN-22" style="rounded=0;orthogonalLoop=1;jettySize=auto;html=1;fillColor=#bac8d3;strokeColor=#23445d;strokeWidth=2;entryX=0.5;entryY=0;entryDx=0;entryDy=0;" edge="1" parent="1" target="8mkqQgr7DWQdwDWj-oUN-14">
          <mxGeometry relative="1" as="geometry">
            <mxPoint x="410" y="300" as="sourcePoint" />
            <mxPoint x="420" y="260" as="targetPoint" />
          </mxGeometry>
        </mxCell>
        <mxCell id="8mkqQgr7DWQdwDWj-oUN-25" style="rounded=0;orthogonalLoop=1;jettySize=auto;html=1;exitX=1;exitY=0.5;exitDx=0;exitDy=0;entryX=1;entryY=0.5;entryDx=0;entryDy=0;fillColor=#bac8d3;strokeColor=#23445d;strokeWidth=2;" edge="1" parent="1" source="8mkqQgr7DWQdwDWj-oUN-23" target="8mkqQgr7DWQdwDWj-oUN-14">
          <mxGeometry relative="1" as="geometry">
            <Array as="points">
              <mxPoint x="720" y="420" />
              <mxPoint x="720" y="345" />
            </Array>
          </mxGeometry>
        </mxCell>
        <mxCell id="8mkqQgr7DWQdwDWj-oUN-27" style="edgeStyle=orthogonalEdgeStyle;rounded=0;orthogonalLoop=1;jettySize=auto;html=1;exitX=0;exitY=0.5;exitDx=0;exitDy=0;entryX=0.5;entryY=0;entryDx=0;entryDy=0;fillColor=#bac8d3;strokeColor=#23445d;strokeWidth=2;" edge="1" parent="1" source="8mkqQgr7DWQdwDWj-oUN-23" target="8mkqQgr7DWQdwDWj-oUN-26">
          <mxGeometry relative="1" as="geometry" />
        </mxCell>
        <mxCell id="8mkqQgr7DWQdwDWj-oUN-23" value="&lt;font style=&quot;font-size: 14px;&quot;&gt;Подходящий&lt;/font&gt;&lt;div style=&quot;line-height: 90%; font-size: 14px;&quot;&gt;&lt;font style=&quot;font-size: 14px;&quot;&gt;рейс&amp;nbsp;&lt;span style=&quot;background-color: initial; font-size: 14px;&quot;&gt;найден?&lt;/span&gt;&lt;/font&gt;&lt;/div&gt;" style="rhombus;whiteSpace=wrap;html=1;fillColor=#dae8fc;strokeColor=#6c8ebf;strokeWidth=2;fontFamily=Times New Roman;fontSize=14;fontStyle=1;verticalAlign=middle;" vertex="1" parent="1">
          <mxGeometry x="320" y="390" width="180" height="60" as="geometry" />
        </mxCell>
        <mxCell id="8mkqQgr7DWQdwDWj-oUN-26" value="Нажать в столбце &quot;Действие&quot; таблицы&lt;div&gt;кнопку &quot;Забронировать&quot;&lt;/div&gt;" style="rounded=0;whiteSpace=wrap;html=1;fontFamily=Times New Roman;fontSize=16;fontStyle=1;fillColor=#dae8fc;strokeColor=#6c8ebf;strokeWidth=2;" vertex="1" parent="1">
          <mxGeometry x="30" y="480" width="360" height="40" as="geometry" />
        </mxCell>
        <mxCell id="8mkqQgr7DWQdwDWj-oUN-28" value="&lt;font style=&quot;font-size: 16px;&quot;&gt;Отображение формы&lt;br&gt;&lt;/font&gt;&lt;div&gt;&lt;font style=&quot;font-size: 16px;&quot;&gt;подтверждения бронирования рейса&lt;/font&gt;&lt;/div&gt;" style="html=1;shadow=0;dashed=0;align=center;verticalAlign=middle;shape=mxgraph.arrows2.arrow;dy=0;dx=22.48;notch=0;flipV=0;flipH=1;fontFamily=Times New Roman;fontStyle=1;fontSize=16;fillColor=#dae8fc;strokeColor=#6c8ebf;strokeWidth=2;" vertex="1" parent="1">
          <mxGeometry x="30" y="550" width="360" height="50" as="geometry" />
        </mxCell>
        <mxCell id="8mkqQgr7DWQdwDWj-oUN-29" style="rounded=0;orthogonalLoop=1;jettySize=auto;html=1;exitX=0.5;exitY=1;exitDx=0;exitDy=0;fillColor=#bac8d3;strokeColor=#23445d;strokeWidth=2;" edge="1" parent="1" source="8mkqQgr7DWQdwDWj-oUN-26">
          <mxGeometry relative="1" as="geometry">
            <mxPoint x="420" y="370" as="sourcePoint" />
            <mxPoint x="210" y="550" as="targetPoint" />
          </mxGeometry>
        </mxCell>
        <mxCell id="8mkqQgr7DWQdwDWj-oUN-30" style="rounded=0;orthogonalLoop=1;jettySize=auto;html=1;exitX=0.5;exitY=1;exitDx=0;exitDy=0;fillColor=#bac8d3;strokeColor=#23445d;strokeWidth=2;entryX=0.5;entryY=0;entryDx=0;entryDy=0;" edge="1" parent="1" target="8mkqQgr7DWQdwDWj-oUN-31">
          <mxGeometry relative="1" as="geometry">
            <mxPoint x="209.71" y="600" as="sourcePoint" />
            <mxPoint x="230" y="620" as="targetPoint" />
          </mxGeometry>
        </mxCell>
        <mxCell id="8mkqQgr7DWQdwDWj-oUN-31" value="Подтвердить рейс,&lt;div&gt;нажав на кнопку &quot;Забронировать&quot;&lt;/div&gt;" style="rounded=0;whiteSpace=wrap;html=1;fontFamily=Times New Roman;fontSize=16;fontStyle=1;fillColor=#dae8fc;strokeColor=#6c8ebf;strokeWidth=2;" vertex="1" parent="1">
          <mxGeometry x="30" y="630" width="360" height="40" as="geometry" />
        </mxCell>
        <mxCell id="8mkqQgr7DWQdwDWj-oUN-32" value="&lt;font style=&quot;font-size: 16px;&quot;&gt;Отображение всплывающего&amp;nbsp;&lt;/font&gt;&lt;span style=&quot;background-color: initial;&quot;&gt;сообщения&lt;/span&gt;&lt;div&gt;&lt;span style=&quot;background-color: initial;&quot;&gt;об успешном бронировании&lt;/span&gt;&lt;/div&gt;" style="html=1;shadow=0;dashed=0;align=center;verticalAlign=middle;shape=mxgraph.arrows2.arrow;dy=0;dx=22.48;notch=0;flipV=0;flipH=1;fontFamily=Times New Roman;fontStyle=1;fontSize=16;fillColor=#dae8fc;strokeColor=#6c8ebf;strokeWidth=2;" vertex="1" parent="1">
          <mxGeometry x="30" y="770" width="360" height="50" as="geometry" />
        </mxCell>
        <mxCell id="8mkqQgr7DWQdwDWj-oUN-34" style="rounded=0;orthogonalLoop=1;jettySize=auto;html=1;exitX=0.5;exitY=1;exitDx=0;exitDy=0;fillColor=#bac8d3;strokeColor=#23445d;strokeWidth=2;entryX=0.5;entryY=0;entryDx=0;entryDy=0;" edge="1" parent="1" source="8mkqQgr7DWQdwDWj-oUN-31" target="8mkqQgr7DWQdwDWj-oUN-53">
          <mxGeometry relative="1" as="geometry">
            <mxPoint x="219.71" y="610" as="sourcePoint" />
            <mxPoint x="210" y="700" as="targetPoint" />
          </mxGeometry>
        </mxCell>
        <mxCell id="8mkqQgr7DWQdwDWj-oUN-40" style="rounded=0;orthogonalLoop=1;jettySize=auto;html=1;exitX=0.5;exitY=1;exitDx=0;exitDy=0;fillColor=#bac8d3;strokeColor=#23445d;strokeWidth=2;" edge="1" parent="1" source="8mkqQgr7DWQdwDWj-oUN-35">
          <mxGeometry relative="1" as="geometry">
            <mxPoint x="409.7931034482758" y="920" as="targetPoint" />
          </mxGeometry>
        </mxCell>
        <mxCell id="8mkqQgr7DWQdwDWj-oUN-35" value="Нажать в боковом меню &quot;Рейсы&quot;&amp;nbsp;&lt;span style=&quot;font-family: &amp;quot;Times New Roman&amp;quot;, serif; font-size: 16px; background-color: initial;&quot;&gt;–&lt;/span&gt;&amp;nbsp;&quot;Мои бронирования&quot;" style="rounded=0;whiteSpace=wrap;html=1;fontFamily=Times New Roman;fontSize=16;fontStyle=1;fillColor=#dae8fc;strokeColor=#6c8ebf;strokeWidth=2;" vertex="1" parent="1">
          <mxGeometry x="150" y="860" width="520" height="30" as="geometry" />
        </mxCell>
        <mxCell id="8mkqQgr7DWQdwDWj-oUN-37" style="rounded=0;orthogonalLoop=1;jettySize=auto;html=1;fillColor=#bac8d3;strokeColor=#23445d;strokeWidth=2;entryX=0.5;entryY=0;entryDx=0;entryDy=0;" edge="1" parent="1" target="8mkqQgr7DWQdwDWj-oUN-35">
          <mxGeometry relative="1" as="geometry">
            <mxPoint x="210" y="820" as="sourcePoint" />
            <mxPoint x="220" y="780" as="targetPoint" />
            <Array as="points">
              <mxPoint x="210" y="840" />
              <mxPoint x="410" y="840" />
            </Array>
          </mxGeometry>
        </mxCell>
        <mxCell id="8mkqQgr7DWQdwDWj-oUN-38" value="&lt;font style=&quot;font-size: 16px;&quot;&gt;Отображение&lt;br&gt;&lt;/font&gt;&lt;div&gt;&lt;font style=&quot;font-size: 16px;&quot;&gt;всех доступных рейсов&lt;/font&gt;&lt;/div&gt;" style="html=1;shadow=0;dashed=0;align=center;verticalAlign=middle;shape=mxgraph.arrows2.arrow;dy=0;dx=22.48;notch=0;flipV=0;flipH=1;fontFamily=Times New Roman;fontStyle=1;fontSize=16;fillColor=#dae8fc;strokeColor=#6c8ebf;strokeWidth=2;" vertex="1" parent="1">
          <mxGeometry x="230" y="250" width="360" height="50" as="geometry" />
        </mxCell>
        <mxCell id="8mkqQgr7DWQdwDWj-oUN-39" value="&lt;font style=&quot;font-size: 16px;&quot;&gt;Отображение&lt;br&gt;&lt;/font&gt;&lt;div&gt;&lt;font style=&quot;font-size: 16px;&quot;&gt;всех бронирований&lt;/font&gt;&lt;/div&gt;" style="html=1;shadow=0;dashed=0;align=center;verticalAlign=middle;shape=mxgraph.arrows2.arrow;dy=0;dx=22.48;notch=0;flipV=0;flipH=1;fontFamily=Times New Roman;fontStyle=1;fontSize=16;fillColor=#dae8fc;strokeColor=#6c8ebf;strokeWidth=2;" vertex="1" parent="1">
          <mxGeometry x="230" y="920" width="360" height="50" as="geometry" />
        </mxCell>
        <mxCell id="8mkqQgr7DWQdwDWj-oUN-41" style="rounded=0;orthogonalLoop=1;jettySize=auto;html=1;exitX=1;exitY=0.5;exitDx=0;exitDy=0;fillColor=#bac8d3;strokeColor=#23445d;strokeWidth=2;entryX=0.5;entryY=0;entryDx=0;entryDy=0;edgeStyle=orthogonalEdgeStyle;" edge="1" parent="1" source="8mkqQgr7DWQdwDWj-oUN-43" target="8mkqQgr7DWQdwDWj-oUN-47">
          <mxGeometry relative="1" as="geometry">
            <mxPoint x="590" y="1025" as="targetPoint" />
          </mxGeometry>
        </mxCell>
        <mxCell id="8mkqQgr7DWQdwDWj-oUN-42" style="rounded=0;orthogonalLoop=1;jettySize=auto;html=1;exitX=0;exitY=0.5;exitDx=0;exitDy=0;fillColor=#bac8d3;strokeColor=#23445d;strokeWidth=2;entryX=0.5;entryY=0;entryDx=0;entryDy=0;edgeStyle=orthogonalEdgeStyle;" edge="1" parent="1" source="8mkqQgr7DWQdwDWj-oUN-43" target="8mkqQgr7DWQdwDWj-oUN-45">
          <mxGeometry relative="1" as="geometry">
            <mxPoint x="220" y="1025" as="targetPoint" />
          </mxGeometry>
        </mxCell>
        <mxCell id="8mkqQgr7DWQdwDWj-oUN-43" value="Бронирование&lt;div&gt;актуально?&lt;/div&gt;" style="rhombus;whiteSpace=wrap;html=1;fillColor=#dae8fc;strokeColor=#6c8ebf;strokeWidth=2;fontFamily=Times New Roman;fontSize=14;fontStyle=1;verticalAlign=middle;" vertex="1" parent="1">
          <mxGeometry x="320" y="995" width="180" height="60" as="geometry" />
        </mxCell>
        <mxCell id="8mkqQgr7DWQdwDWj-oUN-44" style="rounded=0;orthogonalLoop=1;jettySize=auto;html=1;fillColor=#bac8d3;strokeColor=#23445d;strokeWidth=2;entryX=0.5;entryY=0;entryDx=0;entryDy=0;" edge="1" parent="1" target="8mkqQgr7DWQdwDWj-oUN-43">
          <mxGeometry relative="1" as="geometry">
            <mxPoint x="419.7931034482758" y="930" as="targetPoint" />
            <mxPoint x="410" y="970" as="sourcePoint" />
            <Array as="points" />
          </mxGeometry>
        </mxCell>
        <mxCell id="8mkqQgr7DWQdwDWj-oUN-45" value="Нажать в столбце &quot;Действие&quot; таблицы&lt;div&gt;кнопку &quot;Оплатить&quot;&lt;/div&gt;" style="rounded=0;whiteSpace=wrap;html=1;fontFamily=Times New Roman;fontSize=16;fontStyle=1;fillColor=#dae8fc;strokeColor=#6c8ebf;strokeWidth=2;" vertex="1" parent="1">
          <mxGeometry x="30" y="1080" width="360" height="40" as="geometry" />
        </mxCell>
        <mxCell id="8mkqQgr7DWQdwDWj-oUN-57" style="rounded=0;orthogonalLoop=1;jettySize=auto;html=1;exitX=0.5;exitY=1;exitDx=0;exitDy=0;entryX=0.5;entryY=0;entryDx=0;entryDy=0;strokeWidth=2;fillColor=#bac8d3;strokeColor=#23445d;" edge="1" parent="1" source="8mkqQgr7DWQdwDWj-oUN-47" target="8mkqQgr7DWQdwDWj-oUN-56">
          <mxGeometry relative="1" as="geometry" />
        </mxCell>
        <mxCell id="8mkqQgr7DWQdwDWj-oUN-47" value="Нажать в столбце &quot;Действие&quot; таблицы&lt;div&gt;кнопку &quot;Отменить&quot;&lt;/div&gt;" style="rounded=0;whiteSpace=wrap;html=1;fontFamily=Times New Roman;fontSize=16;fontStyle=1;fillColor=#dae8fc;strokeColor=#6c8ebf;strokeWidth=2;" vertex="1" parent="1">
          <mxGeometry x="440" y="1080" width="340" height="40" as="geometry" />
        </mxCell>
        <mxCell id="8mkqQgr7DWQdwDWj-oUN-48" value="&lt;font style=&quot;font-size: 16px;&quot;&gt;&lt;b&gt;да&lt;/b&gt;&lt;/font&gt;" style="text;html=1;align=center;verticalAlign=middle;whiteSpace=wrap;rounded=0;fontFamily=Times New Roman;" vertex="1" parent="1">
          <mxGeometry x="280" y="390" width="40" height="30" as="geometry" />
        </mxCell>
        <mxCell id="8mkqQgr7DWQdwDWj-oUN-49" value="&lt;font style=&quot;font-size: 16px;&quot;&gt;&lt;b&gt;нет&lt;/b&gt;&lt;/font&gt;" style="text;html=1;align=center;verticalAlign=middle;whiteSpace=wrap;rounded=0;fontFamily=Times New Roman;" vertex="1" parent="1">
          <mxGeometry x="500" y="390" width="40" height="30" as="geometry" />
        </mxCell>
        <mxCell id="8mkqQgr7DWQdwDWj-oUN-51" value="&lt;font style=&quot;font-size: 16px;&quot;&gt;&lt;b&gt;да&lt;/b&gt;&lt;/font&gt;" style="text;html=1;align=center;verticalAlign=middle;whiteSpace=wrap;rounded=0;fontFamily=Times New Roman;" vertex="1" parent="1">
          <mxGeometry x="280" y="995" width="40" height="30" as="geometry" />
        </mxCell>
        <mxCell id="8mkqQgr7DWQdwDWj-oUN-52" value="&lt;font style=&quot;font-size: 16px;&quot;&gt;&lt;b&gt;нет&lt;/b&gt;&lt;/font&gt;" style="text;html=1;align=center;verticalAlign=middle;whiteSpace=wrap;rounded=0;fontFamily=Times New Roman;" vertex="1" parent="1">
          <mxGeometry x="500" y="995" width="40" height="30" as="geometry" />
        </mxCell>
        <mxCell id="8mkqQgr7DWQdwDWj-oUN-53" value="&lt;font style=&quot;font-size: 16px;&quot;&gt;&lt;b&gt;Создание нового бронирования рейса&lt;/b&gt;&lt;/font&gt;" style="shape=process;whiteSpace=wrap;html=1;backgroundOutline=1;fillColor=#dae8fc;strokeColor=#6c8ebf;strokeWidth=2;size=0.027777777777777776;fontFamily=Times New Roman;fontSize=17;" vertex="1" parent="1">
          <mxGeometry x="30" y="700" width="360" height="40" as="geometry" />
        </mxCell>
        <mxCell id="8mkqQgr7DWQdwDWj-oUN-55" style="rounded=0;orthogonalLoop=1;jettySize=auto;html=1;exitX=0.5;exitY=1;exitDx=0;exitDy=0;fillColor=#bac8d3;strokeColor=#23445d;strokeWidth=2;" edge="1" parent="1" source="8mkqQgr7DWQdwDWj-oUN-53">
          <mxGeometry relative="1" as="geometry">
            <mxPoint x="220" y="680" as="sourcePoint" />
            <mxPoint x="210" y="770" as="targetPoint" />
          </mxGeometry>
        </mxCell>
        <mxCell id="8mkqQgr7DWQdwDWj-oUN-56" value="&lt;font style=&quot;font-size: 16px;&quot;&gt;&lt;b&gt;Удаление бронирования рейса&lt;/b&gt;&lt;/font&gt;" style="shape=process;whiteSpace=wrap;html=1;backgroundOutline=1;fillColor=#dae8fc;strokeColor=#6c8ebf;strokeWidth=2;size=0.027777777777777776;fontFamily=Times New Roman;fontSize=17;" vertex="1" parent="1">
          <mxGeometry x="440" y="1150" width="340" height="40" as="geometry" />
        </mxCell>
        <mxCell id="8mkqQgr7DWQdwDWj-oUN-58" value="&lt;font style=&quot;font-size: 16px;&quot;&gt;Отображение формы&lt;br&gt;&lt;/font&gt;&lt;div&gt;&lt;font style=&quot;font-size: 16px;&quot;&gt;оплаты забронированного рейса&lt;/font&gt;&lt;/div&gt;" style="html=1;shadow=0;dashed=0;align=center;verticalAlign=middle;shape=mxgraph.arrows2.arrow;dy=0;dx=22.48;notch=0;flipV=0;flipH=1;fontFamily=Times New Roman;fontStyle=1;fontSize=16;fillColor=#dae8fc;strokeColor=#6c8ebf;strokeWidth=2;" vertex="1" parent="1">
          <mxGeometry x="30" y="1150" width="360" height="50" as="geometry" />
        </mxCell>
        <mxCell id="8mkqQgr7DWQdwDWj-oUN-59" style="rounded=0;orthogonalLoop=1;jettySize=auto;html=1;exitX=0.5;exitY=1;exitDx=0;exitDy=0;fillColor=#bac8d3;strokeColor=#23445d;strokeWidth=2;" edge="1" parent="1" source="8mkqQgr7DWQdwDWj-oUN-45">
          <mxGeometry relative="1" as="geometry">
            <mxPoint x="209.91" y="1120" as="sourcePoint" />
            <mxPoint x="209.91" y="1150" as="targetPoint" />
          </mxGeometry>
        </mxCell>
        <mxCell id="8mkqQgr7DWQdwDWj-oUN-60" style="rounded=0;orthogonalLoop=1;jettySize=auto;html=1;exitX=0.5;exitY=1;exitDx=0;exitDy=0;fillColor=#bac8d3;strokeColor=#23445d;strokeWidth=2;entryX=0.5;entryY=0;entryDx=0;entryDy=0;" edge="1" parent="1" target="8mkqQgr7DWQdwDWj-oUN-61">
          <mxGeometry relative="1" as="geometry">
            <mxPoint x="209.62" y="1200" as="sourcePoint" />
            <mxPoint x="240" y="1220" as="targetPoint" />
          </mxGeometry>
        </mxCell>
        <mxCell id="8mkqQgr7DWQdwDWj-oUN-63" style="edgeStyle=orthogonalEdgeStyle;rounded=0;orthogonalLoop=1;jettySize=auto;html=1;exitX=0.5;exitY=1;exitDx=0;exitDy=0;entryX=0.5;entryY=0;entryDx=0;entryDy=0;fillColor=#bac8d3;strokeColor=#23445d;strokeWidth=2;" edge="1" parent="1" source="8mkqQgr7DWQdwDWj-oUN-61" target="8mkqQgr7DWQdwDWj-oUN-62">
          <mxGeometry relative="1" as="geometry" />
        </mxCell>
        <mxCell id="8mkqQgr7DWQdwDWj-oUN-61" value="Ввод кода оплаты в форму" style="shape=parallelogram;perimeter=parallelogramPerimeter;whiteSpace=wrap;html=1;fixedSize=1;fillColor=#dae8fc;strokeColor=#6c8ebf;strokeWidth=2;fontFamily=Times New Roman;fontSize=16;fontStyle=1" vertex="1" parent="1">
          <mxGeometry x="30" y="1230" width="360" height="40" as="geometry" />
        </mxCell>
        <mxCell id="8mkqQgr7DWQdwDWj-oUN-66" style="rounded=0;orthogonalLoop=1;jettySize=auto;html=1;exitX=0.5;exitY=1;exitDx=0;exitDy=0;fillColor=#bac8d3;strokeColor=#23445d;strokeWidth=2;" edge="1" parent="1" source="8mkqQgr7DWQdwDWj-oUN-62" target="8mkqQgr7DWQdwDWj-oUN-65">
          <mxGeometry relative="1" as="geometry" />
        </mxCell>
        <mxCell id="8mkqQgr7DWQdwDWj-oUN-62" value="&lt;font style=&quot;font-size: 16px;&quot;&gt;Послать код оплаты на проверку администратору,&amp;nbsp;&lt;span style=&quot;background-color: initial;&quot;&gt;нажав на кнопку&lt;/span&gt;&lt;/font&gt;&lt;div style=&quot;font-size: 16px;&quot;&gt;&lt;span style=&quot;background-color: initial;&quot;&gt;&lt;font style=&quot;font-size: 16px;&quot;&gt;&quot;Послать код оплаты на проверку&quot;&lt;/font&gt;&lt;/span&gt;&lt;/div&gt;" style="rounded=0;whiteSpace=wrap;html=1;fontFamily=Times New Roman;fontSize=15;fontStyle=1;fillColor=#dae8fc;strokeColor=#6c8ebf;strokeWidth=2;" vertex="1" parent="1">
          <mxGeometry x="30" y="1300" width="360" height="60" as="geometry" />
        </mxCell>
        <mxCell id="8mkqQgr7DWQdwDWj-oUN-64" value="&lt;font style=&quot;font-size: 16px;&quot;&gt;Отображение всплывающего&amp;nbsp;&lt;/font&gt;&lt;span style=&quot;background-color: initial;&quot;&gt;сообщения&lt;/span&gt;&lt;div&gt;&lt;span style=&quot;background-color: initial;&quot;&gt;об успешной отправке кода на проверку&lt;/span&gt;&lt;/div&gt;" style="html=1;shadow=0;dashed=0;align=center;verticalAlign=middle;shape=mxgraph.arrows2.arrow;dy=0;dx=22.48;notch=0;flipV=0;flipH=1;fontFamily=Times New Roman;fontStyle=1;fontSize=16;fillColor=#dae8fc;strokeColor=#6c8ebf;strokeWidth=2;" vertex="1" parent="1">
          <mxGeometry x="30" y="1460" width="360" height="50" as="geometry" />
        </mxCell>
        <mxCell id="8mkqQgr7DWQdwDWj-oUN-65" value="&lt;font style=&quot;font-size: 16px;&quot;&gt;&lt;b&gt;Создание нового неподтверждённого билета&lt;/b&gt;&lt;/font&gt;" style="shape=process;whiteSpace=wrap;html=1;backgroundOutline=1;fillColor=#dae8fc;strokeColor=#6c8ebf;strokeWidth=2;size=0.027777777777777776;fontFamily=Times New Roman;fontSize=17;" vertex="1" parent="1">
          <mxGeometry x="30" y="1390" width="360" height="40" as="geometry" />
        </mxCell>
        <mxCell id="8mkqQgr7DWQdwDWj-oUN-67" style="rounded=0;orthogonalLoop=1;jettySize=auto;html=1;exitX=0.5;exitY=1;exitDx=0;exitDy=0;fillColor=#bac8d3;strokeColor=#23445d;strokeWidth=2;" edge="1" parent="1" source="8mkqQgr7DWQdwDWj-oUN-65">
          <mxGeometry relative="1" as="geometry">
            <mxPoint x="220" y="1370" as="sourcePoint" />
            <mxPoint x="210" y="1460" as="targetPoint" />
          </mxGeometry>
        </mxCell>
        <mxCell id="8mkqQgr7DWQdwDWj-oUN-71" style="rounded=0;orthogonalLoop=1;jettySize=auto;html=1;exitX=0.5;exitY=1;exitDx=0;exitDy=0;fillColor=#bac8d3;strokeColor=#23445d;strokeWidth=2;" edge="1" parent="1" source="8mkqQgr7DWQdwDWj-oUN-72">
          <mxGeometry relative="1" as="geometry">
            <mxPoint x="410" y="1680" as="targetPoint" />
          </mxGeometry>
        </mxCell>
        <mxCell id="8mkqQgr7DWQdwDWj-oUN-72" value="Нажать в боковом меню &quot;Билеты&quot;&amp;nbsp;&lt;span style=&quot;font-family: &amp;quot;Times New Roman&amp;quot;, serif; font-size: 16px; background-color: initial;&quot;&gt;–&lt;/span&gt;&amp;nbsp;&quot;Мои билеты&quot;" style="rounded=0;whiteSpace=wrap;html=1;fontFamily=Times New Roman;fontSize=16;fontStyle=1;fillColor=#dae8fc;strokeColor=#6c8ebf;strokeWidth=2;" vertex="1" parent="1">
          <mxGeometry x="150" y="1620" width="520" height="30" as="geometry" />
        </mxCell>
        <mxCell id="8mkqQgr7DWQdwDWj-oUN-73" style="rounded=0;orthogonalLoop=1;jettySize=auto;html=1;fillColor=#bac8d3;strokeColor=#23445d;strokeWidth=2;entryX=0.5;entryY=0;entryDx=0;entryDy=0;exitX=0.5;exitY=1;exitDx=0;exitDy=0;" edge="1" parent="1" target="8mkqQgr7DWQdwDWj-oUN-72" source="8mkqQgr7DWQdwDWj-oUN-83">
          <mxGeometry relative="1" as="geometry">
            <mxPoint x="110" y="1610" as="sourcePoint" />
            <mxPoint x="220" y="1470" as="targetPoint" />
            <Array as="points">
              <mxPoint x="210" y="1600" />
              <mxPoint x="410" y="1600" />
            </Array>
          </mxGeometry>
        </mxCell>
        <mxCell id="8mkqQgr7DWQdwDWj-oUN-74" value="&lt;font style=&quot;font-size: 16px;&quot;&gt;Отображение&amp;nbsp;&lt;/font&gt;&lt;span style=&quot;background-color: initial;&quot;&gt;всех билетов&lt;/span&gt;&lt;div&gt;&lt;span style=&quot;background-color: initial;&quot;&gt;(и с подтверждённой,&amp;nbsp;&lt;/span&gt;&lt;span style=&quot;background-color: initial;&quot;&gt;и с неподтверждённой оплатой)&lt;/span&gt;&lt;/div&gt;" style="html=1;shadow=0;dashed=0;align=center;verticalAlign=middle;shape=mxgraph.arrows2.arrow;dy=0;dx=22.48;notch=0;flipV=0;flipH=1;fontFamily=Times New Roman;fontStyle=1;fontSize=16;fillColor=#dae8fc;strokeColor=#6c8ebf;strokeWidth=2;" vertex="1" parent="1">
          <mxGeometry x="190" y="1680" width="440" height="50" as="geometry" />
        </mxCell>
        <mxCell id="8mkqQgr7DWQdwDWj-oUN-75" style="rounded=0;orthogonalLoop=1;jettySize=auto;html=1;exitX=1;exitY=0.5;exitDx=0;exitDy=0;fillColor=#bac8d3;strokeColor=#23445d;strokeWidth=2;edgeStyle=orthogonalEdgeStyle;entryX=1;entryY=0.5;entryDx=0;entryDy=0;" edge="1" parent="1" source="8mkqQgr7DWQdwDWj-oUN-77" target="8mkqQgr7DWQdwDWj-oUN-8">
          <mxGeometry relative="1" as="geometry">
            <mxPoint x="690" y="220" as="targetPoint" />
            <Array as="points">
              <mxPoint x="800" y="1790" />
              <mxPoint x="800" y="205" />
            </Array>
          </mxGeometry>
        </mxCell>
        <mxCell id="8mkqQgr7DWQdwDWj-oUN-76" style="rounded=0;orthogonalLoop=1;jettySize=auto;html=1;exitX=0;exitY=0.5;exitDx=0;exitDy=0;fillColor=#bac8d3;strokeColor=#23445d;strokeWidth=2;entryX=0.5;entryY=0;entryDx=0;entryDy=0;edgeStyle=orthogonalEdgeStyle;" edge="1" parent="1" source="8mkqQgr7DWQdwDWj-oUN-77" target="8mkqQgr7DWQdwDWj-oUN-79">
          <mxGeometry relative="1" as="geometry">
            <mxPoint x="220" y="1815" as="targetPoint" />
          </mxGeometry>
        </mxCell>
        <mxCell id="8mkqQgr7DWQdwDWj-oUN-77" value="Оплата билета&lt;div&gt;подтверждена?&lt;/div&gt;" style="rhombus;whiteSpace=wrap;html=1;fillColor=#dae8fc;strokeColor=#6c8ebf;strokeWidth=2;fontFamily=Times New Roman;fontSize=14;fontStyle=1;verticalAlign=middle;" vertex="1" parent="1">
          <mxGeometry x="320" y="1760" width="180" height="60" as="geometry" />
        </mxCell>
        <mxCell id="8mkqQgr7DWQdwDWj-oUN-78" style="rounded=0;orthogonalLoop=1;jettySize=auto;html=1;fillColor=#bac8d3;strokeColor=#23445d;strokeWidth=2;entryX=0.5;entryY=0;entryDx=0;entryDy=0;" edge="1" parent="1" target="8mkqQgr7DWQdwDWj-oUN-77">
          <mxGeometry relative="1" as="geometry">
            <mxPoint x="419.7931034482758" y="1720" as="targetPoint" />
            <mxPoint x="410" y="1730" as="sourcePoint" />
            <Array as="points" />
          </mxGeometry>
        </mxCell>
        <mxCell id="8mkqQgr7DWQdwDWj-oUN-88" style="edgeStyle=orthogonalEdgeStyle;rounded=0;orthogonalLoop=1;jettySize=auto;html=1;exitX=0.5;exitY=1;exitDx=0;exitDy=0;fillColor=#bac8d3;strokeColor=#23445d;strokeWidth=2;" edge="1" parent="1" source="8mkqQgr7DWQdwDWj-oUN-79">
          <mxGeometry relative="1" as="geometry">
            <mxPoint x="210.28571428571433" y="1920" as="targetPoint" />
          </mxGeometry>
        </mxCell>
        <mxCell id="8mkqQgr7DWQdwDWj-oUN-79" value="Нажать в столбце &quot;Действие&quot; таблицы&lt;div&gt;кнопку &quot;Печать&quot;&lt;/div&gt;" style="rounded=0;whiteSpace=wrap;html=1;fontFamily=Times New Roman;fontSize=16;fontStyle=1;fillColor=#dae8fc;strokeColor=#6c8ebf;strokeWidth=2;" vertex="1" parent="1">
          <mxGeometry x="30" y="1850" width="360" height="40" as="geometry" />
        </mxCell>
        <mxCell id="8mkqQgr7DWQdwDWj-oUN-81" value="&lt;font style=&quot;font-size: 16px;&quot;&gt;&lt;b&gt;да&lt;/b&gt;&lt;/font&gt;" style="text;html=1;align=center;verticalAlign=middle;whiteSpace=wrap;rounded=0;fontFamily=Times New Roman;" vertex="1" parent="1">
          <mxGeometry x="280" y="1760" width="40" height="30" as="geometry" />
        </mxCell>
        <mxCell id="8mkqQgr7DWQdwDWj-oUN-82" value="&lt;font style=&quot;font-size: 16px;&quot;&gt;&lt;b&gt;нет&lt;/b&gt;&lt;/font&gt;" style="text;html=1;align=center;verticalAlign=middle;whiteSpace=wrap;rounded=0;fontFamily=Times New Roman;" vertex="1" parent="1">
          <mxGeometry x="500" y="1760" width="40" height="30" as="geometry" />
        </mxCell>
        <mxCell id="8mkqQgr7DWQdwDWj-oUN-83" value="&lt;span style=&quot;font-size: 16px;&quot;&gt;&lt;b&gt;Проверка оплаты администратором&lt;/b&gt;&lt;/span&gt;" style="shape=process;whiteSpace=wrap;html=1;backgroundOutline=1;fillColor=#dae8fc;strokeColor=#6c8ebf;strokeWidth=2;size=0.027777777777777776;fontFamily=Times New Roman;fontSize=17;" vertex="1" parent="1">
          <mxGeometry x="30" y="1540" width="360" height="40" as="geometry" />
        </mxCell>
        <mxCell id="8mkqQgr7DWQdwDWj-oUN-84" style="rounded=0;orthogonalLoop=1;jettySize=auto;html=1;fillColor=#bac8d3;strokeColor=#23445d;strokeWidth=2;entryX=0.5;entryY=0;entryDx=0;entryDy=0;" edge="1" parent="1" target="8mkqQgr7DWQdwDWj-oUN-83">
          <mxGeometry relative="1" as="geometry">
            <mxPoint x="210" y="1510" as="sourcePoint" />
            <mxPoint x="420" y="1660" as="targetPoint" />
          </mxGeometry>
        </mxCell>
        <mxCell id="8mkqQgr7DWQdwDWj-oUN-85" style="rounded=0;orthogonalLoop=1;jettySize=auto;html=1;exitX=0.5;exitY=1;exitDx=0;exitDy=0;fillColor=#bac8d3;strokeColor=#23445d;strokeWidth=2;entryX=0;entryY=0.5;entryDx=0;entryDy=0;entryPerimeter=0;" edge="1" parent="1" source="8mkqQgr7DWQdwDWj-oUN-56" target="8mkqQgr7DWQdwDWj-oUN-39">
          <mxGeometry relative="1" as="geometry">
            <mxPoint x="700" y="881.60009765625" as="targetPoint" />
            <Array as="points">
              <mxPoint x="610" y="1210" />
              <mxPoint x="790" y="1210" />
              <mxPoint x="790" y="945" />
            </Array>
          </mxGeometry>
        </mxCell>
        <mxCell id="8mkqQgr7DWQdwDWj-oUN-86" value="&lt;font style=&quot;font-size: 16px;&quot;&gt;Отображение билета&lt;/font&gt;" style="html=1;shadow=0;dashed=0;align=center;verticalAlign=middle;shape=mxgraph.arrows2.arrow;dy=0;dx=22.48;notch=0;flipV=0;flipH=1;fontFamily=Times New Roman;fontStyle=1;fontSize=16;fillColor=#dae8fc;strokeColor=#6c8ebf;strokeWidth=2;" vertex="1" parent="1">
          <mxGeometry x="30" y="1920" width="360" height="40" as="geometry" />
        </mxCell>
        <mxCell id="8mkqQgr7DWQdwDWj-oUN-93" style="edgeStyle=orthogonalEdgeStyle;rounded=0;orthogonalLoop=1;jettySize=auto;html=1;exitX=0.5;exitY=1;exitDx=0;exitDy=0;entryX=0.5;entryY=0;entryDx=0;entryDy=0;fillColor=#bac8d3;strokeColor=#23445d;strokeWidth=2;" edge="1" parent="1" source="8mkqQgr7DWQdwDWj-oUN-87" target="8mkqQgr7DWQdwDWj-oUN-92">
          <mxGeometry relative="1" as="geometry" />
        </mxCell>
        <mxCell id="8mkqQgr7DWQdwDWj-oUN-87" value="Нажать&amp;nbsp;&lt;span style=&quot;background-color: initial;&quot;&gt;кнопку &quot;Печать&quot;&lt;/span&gt;" style="rounded=0;whiteSpace=wrap;html=1;fontFamily=Times New Roman;fontSize=16;fontStyle=1;fillColor=#dae8fc;strokeColor=#6c8ebf;strokeWidth=2;" vertex="1" parent="1">
          <mxGeometry x="30" y="1990" width="360" height="40" as="geometry" />
        </mxCell>
        <mxCell id="8mkqQgr7DWQdwDWj-oUN-90" style="rounded=0;orthogonalLoop=1;jettySize=auto;html=1;fillColor=#bac8d3;strokeColor=#23445d;strokeWidth=2;entryX=0.5;entryY=0;entryDx=0;entryDy=0;" edge="1" parent="1" target="8mkqQgr7DWQdwDWj-oUN-87">
          <mxGeometry relative="1" as="geometry">
            <mxPoint x="240" y="1980" as="targetPoint" />
            <mxPoint x="209.71" y="1960" as="sourcePoint" />
            <Array as="points" />
          </mxGeometry>
        </mxCell>
        <mxCell id="8mkqQgr7DWQdwDWj-oUN-95" style="edgeStyle=orthogonalEdgeStyle;rounded=0;orthogonalLoop=1;jettySize=auto;html=1;exitX=0.5;exitY=1;exitDx=0;exitDy=0;entryX=0.5;entryY=0;entryDx=0;entryDy=0;fillColor=#bac8d3;strokeColor=#23445d;strokeWidth=2;" edge="1" parent="1" source="8mkqQgr7DWQdwDWj-oUN-92" target="8mkqQgr7DWQdwDWj-oUN-94">
          <mxGeometry relative="1" as="geometry" />
        </mxCell>
        <mxCell id="8mkqQgr7DWQdwDWj-oUN-97" style="edgeStyle=orthogonalEdgeStyle;rounded=0;orthogonalLoop=1;jettySize=auto;html=1;exitX=1;exitY=0.5;exitDx=0;exitDy=0;entryX=0;entryY=0.5;entryDx=0;entryDy=0;fillColor=#bac8d3;strokeColor=#23445d;strokeWidth=2;" edge="1" parent="1" source="8mkqQgr7DWQdwDWj-oUN-92" target="8mkqQgr7DWQdwDWj-oUN-96">
          <mxGeometry relative="1" as="geometry" />
        </mxCell>
        <mxCell id="8mkqQgr7DWQdwDWj-oUN-92" value="&lt;span style=&quot;font-size: 16px;&quot;&gt;&lt;b&gt;Печать билета&lt;/b&gt;&lt;/span&gt;" style="shape=process;whiteSpace=wrap;html=1;backgroundOutline=1;fillColor=#dae8fc;strokeColor=#6c8ebf;strokeWidth=2;size=0.027777777777777776;fontFamily=Times New Roman;fontSize=17;" vertex="1" parent="1">
          <mxGeometry x="30" y="2060" width="360" height="40" as="geometry" />
        </mxCell>
        <mxCell id="8mkqQgr7DWQdwDWj-oUN-94" value="Конец" style="rounded=1;whiteSpace=wrap;html=1;fontFamily=Times New Roman;fontSize=16;fontStyle=1;arcSize=50;fillColor=#dae8fc;strokeColor=#6c8ebf;strokeWidth=2;" vertex="1" parent="1">
          <mxGeometry x="320" y="2160" width="180" height="30" as="geometry" />
        </mxCell>
        <mxCell id="8mkqQgr7DWQdwDWj-oUN-96" value="Билет" style="shape=document;whiteSpace=wrap;html=1;boundedLbl=1;fillColor=#dae8fc;strokeColor=#6c8ebf;strokeWidth=2;fontFamily=Times New Roman;fontSize=16;fontStyle=1;size=0.16666666666666666;" vertex="1" parent="1">
          <mxGeometry x="470" y="2050" width="140" height="60" as="geometry" />
        </mxCell>
      </root>
    </mxGraphModel>
  </diagram>
</mxfile>
